<svg width="246" height="246" viewBox="0 0 246 246" fill="none" xmlns="http://www.w3.org/2000/svg">
<path d="M123.929 76.9288C127.834 73.0237 134.166 73.0237 138.071 76.9288L178.075 116.933C179.664 119.29 180.234 120.944 180.252 122.377C180.27 123.827 179.728 125.572 178.021 128.121L138.071 168.071C134.166 171.977 127.834 171.977 123.929 168.071C120.024 164.166 120.024 157.834 123.929 153.929L145.357 132.5H74.5C68.9772 132.5 64.5 128.023 64.5 122.5C64.5002 116.977 68.9773 112.5 74.5 112.5H145.357L123.929 91.0713C120.024 87.1661 120.024 80.834 123.929 76.9288Z" fill="white"/>
<rect x="10" y="10" width="226" height="226" rx="59" stroke="white" stroke-width="20"/>
</svg>
