<svg width="246" height="246" viewBox="0 0 246 246" fill="none" xmlns="http://www.w3.org/2000/svg">
<path d="M122.071 169.071C118.166 172.976 111.834 172.976 107.929 169.071L67.9248 129.067C66.3358 126.71 65.7664 125.056 65.748 123.623C65.7296 122.173 66.2721 120.428 67.9795 117.879L107.929 77.9287C111.834 74.0234 118.166 74.0234 122.071 77.9287C125.976 81.8339 125.976 88.166 122.071 92.0712L100.643 113.5H171.5C177.023 113.5 181.5 117.977 181.5 123.5C181.5 129.023 177.023 133.5 171.5 133.5H100.643L122.071 154.929C125.976 158.834 125.976 165.166 122.071 169.071Z" fill="white"/>
<rect x="236" y="236" width="226" height="226" rx="59" transform="rotate(180 236 236)" stroke="white" stroke-width="20"/>
</svg>
