<svg width="245" height="226" viewBox="0 0 245 226" fill="none" xmlns="http://www.w3.org/2000/svg">
<path d="M131.998 0C194.406 5.8757e-05 244.998 50.5919 244.998 113C244.998 175.408 194.406 226 131.998 226C86.5948 226 47.446 199.222 29.4823 160.599L29.5106 160.584C29.4215 160.42 29.3358 160.255 29.2499 160.092C28.3325 158.093 27.471 156.064 26.6688 154.005C25.0396 148.868 25.0906 144.487 26.0849 141.02C27.4827 136.145 30.8343 132.7 34.9071 131.091C38.9761 129.483 43.8986 129.658 48.5311 132.347C51.6428 134.153 54.7479 137.177 57.33 141.774C58.2201 144.083 59.2132 146.34 60.3056 148.539C60.4339 148.917 60.5611 149.301 60.6835 149.692L60.8622 149.636C74.1531 175.39 101.019 193 131.998 193C176.181 193 211.998 157.183 211.998 113C211.998 68.8173 176.181 33.0001 131.998 33C105.825 33 82.5884 45.5691 67.9931 65H56.8954C56.9636 64.5082 56.9999 64.0077 56.9999 63.5C56.9999 56.5964 50.508 51 42.4999 51C40.5059 51 38.606 51.3469 36.8768 51.9746C56.9763 20.7101 92.0686 0 131.998 0Z" fill="white"/>
<path d="M45.3251 74.5137C41.0341 74.7686 37.3087 71.5869 36.889 67.3089L33.7704 35.5195C33.0672 28.3523 41.4514 23.9781 46.9276 28.6551L81.9321 58.5508C87.4084 63.2278 84.3999 72.1931 77.2109 72.62L45.3251 74.5137Z" fill="white"/>
</svg>
