<svg width="130" height="130" viewBox="0 0 130 130" fill="none" xmlns="http://www.w3.org/2000/svg">
<path d="M110.317 40.5163L79.8253 71.1096C79.8253 71.1096 76.0138 92.7798 74.7433 96.604C73.4728 100.428 53.1447 125.923 50.6037 127.197C48.0627 128.472 45.5217 129.747 42.9807 128.472C40.4397 127.197 36.6282 122.098 36.6282 122.098V114.45L31.5462 109.351H29.0052V114.45L23.9231 119.549H21.3821L11.2181 109.351V106.802L16.3001 101.703H21.3821V99.1534L16.3001 94.0546L89.9894 21.3955L110.317 40.5163Z" fill="white"/>
<path d="M48.0627 54.5382L8.67709 94.0546C8.67709 94.0546 3.58625 90.2304 2.32457 87.681C1.06289 85.1315 1.05407 83.8568 2.32457 80.0326C3.59508 76.2085 31.5627 55.813 35.3577 54.5382C39.1527 53.2635 48.0627 54.5382 48.0627 54.5382Z" fill="white"/>
<path d="M98.8829 21.3955C98.8829 21.3955 96.3253 18.8461 95.0714 17.5714C93.8174 16.2966 93.8009 17.5714 95.0714 15.0219C96.3419 12.4725 109.047 3.54944 109.047 3.54944C109.047 3.54944 112.858 1 117.94 1C123.022 1 125.563 2.27472 126.834 3.54944C128.104 4.82416 129.375 9.92304 129.375 9.92304C129.375 9.92304 129.375 12.4725 128.104 17.5714C126.834 22.6702 117.94 32.868 116.67 34.1427C115.399 35.4174 114.112 36.6922 112.858 35.4174C111.604 34.1427 109.047 31.5933 109.047 31.5933C109.047 31.5933 109.047 23.945 107.776 22.6702C106.506 21.3955 98.8829 21.3955 98.8829 21.3955Z" fill="white"/>
<path d="M110.317 40.5163L79.8253 71.1096C79.8253 71.1096 76.0138 92.7798 74.7433 96.604C73.4728 100.428 53.1447 125.923 50.6037 127.197C48.0627 128.472 45.5217 129.747 42.9807 128.472C40.4397 127.197 36.6282 122.098 36.6282 122.098V114.45L31.5462 109.351H29.0052V114.45L23.9231 119.549H21.3821L11.2181 109.351V106.802L16.3001 101.703H21.3821V99.1534L16.3001 94.0546L89.9894 21.3955L110.317 40.5163Z" stroke="white"/>
<path d="M48.0627 54.5382L8.67709 94.0546C8.67709 94.0546 3.58625 90.2304 2.32457 87.681C1.06289 85.1315 1.05407 83.8568 2.32457 80.0326C3.59508 76.2085 31.5627 55.813 35.3577 54.5382C39.1527 53.2635 48.0627 54.5382 48.0627 54.5382Z" stroke="white"/>
<path d="M98.8829 21.3955C98.8829 21.3955 96.3253 18.8461 95.0714 17.5714C93.8174 16.2966 93.8009 17.5714 95.0714 15.0219C96.3419 12.4725 109.047 3.54944 109.047 3.54944C109.047 3.54944 112.858 1 117.94 1C123.022 1 125.563 2.27472 126.834 3.54944C128.104 4.82416 129.375 9.92304 129.375 9.92304C129.375 9.92304 129.375 12.4725 128.104 17.5714C126.834 22.6702 117.94 32.868 116.67 34.1427C115.399 35.4174 114.112 36.6922 112.858 35.4174C111.604 34.1427 109.047 31.5933 109.047 31.5933C109.047 31.5933 109.047 23.945 107.776 22.6702C106.506 21.3955 98.8829 21.3955 98.8829 21.3955Z" stroke="white"/>
</svg>
